G04 #@! TF.GenerationSoftware,KiCad,Pcbnew,5.1.5-52549c5~84~ubuntu18.04.1*
G04 #@! TF.CreationDate,2020-02-24T19:49:59+02:00*
G04 #@! TF.ProjectId,kello-zcdetector,6b656c6c-6f2d-47a6-9364-65746563746f,rev?*
G04 #@! TF.SameCoordinates,Original*
G04 #@! TF.FileFunction,Profile,NP*
%FSLAX46Y46*%
G04 Gerber Fmt 4.6, Leading zero omitted, Abs format (unit mm)*
G04 Created by KiCad (PCBNEW 5.1.5-52549c5~84~ubuntu18.04.1) date 2020-02-24 19:49:59*
%MOMM*%
%LPD*%
G04 APERTURE LIST*
%ADD10C,0.100000*%
%ADD11C,0.200000*%
G04 APERTURE END LIST*
D10*
X25527000Y-19177000D02*
X20193000Y-24003000D01*
X20193000Y-24003000D02*
X13843000Y-24003000D01*
X13843000Y-24003000D02*
X13335000Y-23495000D01*
X13335000Y-23495000D02*
X13335000Y-22225000D01*
X13335000Y-22225000D02*
X13843000Y-21717000D01*
X13843000Y-21717000D02*
X19177000Y-21717000D01*
X19177000Y-21717000D02*
X23749000Y-17399000D01*
X23749000Y-17399000D02*
X24765000Y-17399000D01*
X24765000Y-17399000D02*
X25527000Y-18161000D01*
X25527000Y-18161000D02*
X25527000Y-19177000D01*
X28321000Y-24257000D02*
X28321000Y-29845000D01*
X28321000Y-29845000D02*
X27432000Y-30861000D01*
X27432000Y-30861000D02*
X26670000Y-30861000D01*
X26670000Y-30861000D02*
X25781000Y-29845000D01*
X25781000Y-29845000D02*
X25781000Y-24257000D01*
X25781000Y-24257000D02*
X26670000Y-23241000D01*
X26670000Y-23241000D02*
X27432000Y-23241000D01*
X27432000Y-23241000D02*
X28321000Y-24257000D01*
X49911000Y-16129000D02*
X49911000Y-28067000D01*
X49911000Y-28067000D02*
X49149000Y-28829000D01*
X49149000Y-28829000D02*
X47625000Y-28829000D01*
X47625000Y-28829000D02*
X46863000Y-28067000D01*
X46863000Y-28067000D02*
X46863000Y-16129000D01*
X46863000Y-16129000D02*
X47625000Y-15367000D01*
X47625000Y-15367000D02*
X49149000Y-15367000D01*
X49149000Y-15367000D02*
X49911000Y-16129000D01*
D11*
X57023000Y-12065000D02*
X12065000Y-12065000D01*
X57023000Y-33655000D02*
X57023000Y-12065000D01*
X12065000Y-33655000D02*
X57023000Y-33655000D01*
X12065000Y-12065000D02*
X12065000Y-33655000D01*
M02*
