G04 #@! TF.GenerationSoftware,KiCad,Pcbnew,5.1.5-52549c5~84~ubuntu18.04.1*
G04 #@! TF.CreationDate,2020-02-24T19:49:59+02:00*
G04 #@! TF.ProjectId,kello-zcdetector,6b656c6c-6f2d-47a6-9364-65746563746f,rev?*
G04 #@! TF.SameCoordinates,Original*
G04 #@! TF.FileFunction,Soldermask,Top*
G04 #@! TF.FilePolarity,Negative*
%FSLAX46Y46*%
G04 Gerber Fmt 4.6, Leading zero omitted, Abs format (unit mm)*
G04 Created by KiCad (PCBNEW 5.1.5-52549c5~84~ubuntu18.04.1) date 2020-02-24 19:49:59*
%MOMM*%
%LPD*%
G04 APERTURE LIST*
%ADD10C,0.100000*%
G04 APERTURE END LIST*
D10*
G36*
X25256532Y-29069065D02*
G01*
X25300079Y-29082276D01*
X25340219Y-29103730D01*
X25375399Y-29132601D01*
X25404270Y-29167781D01*
X25425724Y-29207921D01*
X25438935Y-29251468D01*
X25444000Y-29302900D01*
X25444000Y-32927100D01*
X25438935Y-32978532D01*
X25425724Y-33022079D01*
X25404270Y-33062219D01*
X25375399Y-33097399D01*
X25340219Y-33126270D01*
X25300079Y-33147724D01*
X25256532Y-33160935D01*
X25205100Y-33166000D01*
X23180900Y-33166000D01*
X23129468Y-33160935D01*
X23085921Y-33147724D01*
X23045781Y-33126270D01*
X23010601Y-33097399D01*
X22981730Y-33062219D01*
X22960276Y-33022079D01*
X22947065Y-32978532D01*
X22942000Y-32927100D01*
X22942000Y-29302900D01*
X22947065Y-29251468D01*
X22960276Y-29207921D01*
X22981730Y-29167781D01*
X23010601Y-29132601D01*
X23045781Y-29103730D01*
X23085921Y-29082276D01*
X23129468Y-29069065D01*
X23180900Y-29064000D01*
X25205100Y-29064000D01*
X25256532Y-29069065D01*
G37*
G36*
X17256532Y-29069065D02*
G01*
X17300079Y-29082276D01*
X17340219Y-29103730D01*
X17375399Y-29132601D01*
X17404270Y-29167781D01*
X17425724Y-29207921D01*
X17438935Y-29251468D01*
X17444000Y-29302900D01*
X17444000Y-32927100D01*
X17438935Y-32978532D01*
X17425724Y-33022079D01*
X17404270Y-33062219D01*
X17375399Y-33097399D01*
X17340219Y-33126270D01*
X17300079Y-33147724D01*
X17256532Y-33160935D01*
X17205100Y-33166000D01*
X15180900Y-33166000D01*
X15129468Y-33160935D01*
X15085921Y-33147724D01*
X15045781Y-33126270D01*
X15010601Y-33097399D01*
X14981730Y-33062219D01*
X14960276Y-33022079D01*
X14947065Y-32978532D01*
X14942000Y-32927100D01*
X14942000Y-29302900D01*
X14947065Y-29251468D01*
X14960276Y-29207921D01*
X14981730Y-29167781D01*
X15010601Y-29132601D01*
X15045781Y-29103730D01*
X15085921Y-29082276D01*
X15129468Y-29069065D01*
X15180900Y-29064000D01*
X17205100Y-29064000D01*
X17256532Y-29069065D01*
G37*
G36*
X39584000Y-28878000D02*
G01*
X37482000Y-28878000D01*
X37482000Y-27276000D01*
X39584000Y-27276000D01*
X39584000Y-28878000D01*
G37*
G36*
X30844000Y-28878000D02*
G01*
X28742000Y-28878000D01*
X28742000Y-27276000D01*
X30844000Y-27276000D01*
X30844000Y-28878000D01*
G37*
G36*
X18158752Y-24511097D02*
G01*
X18339295Y-24565864D01*
X18505677Y-24654797D01*
X18651516Y-24774484D01*
X18771203Y-24920323D01*
X18860136Y-25086705D01*
X18914903Y-25267248D01*
X18934000Y-25461140D01*
X18934000Y-27624860D01*
X18914903Y-27818752D01*
X18860136Y-27999295D01*
X18771203Y-28165677D01*
X18651516Y-28311516D01*
X18505677Y-28431203D01*
X18339295Y-28520136D01*
X18158752Y-28574903D01*
X17964860Y-28594000D01*
X14801140Y-28594000D01*
X14607248Y-28574903D01*
X14426705Y-28520136D01*
X14260323Y-28431203D01*
X14114484Y-28311516D01*
X13994797Y-28165677D01*
X13905864Y-27999295D01*
X13851097Y-27818752D01*
X13832000Y-27624860D01*
X13832000Y-25461140D01*
X13851097Y-25267248D01*
X13905864Y-25086705D01*
X13994797Y-24920323D01*
X14114484Y-24774484D01*
X14260323Y-24654797D01*
X14426705Y-24565864D01*
X14607248Y-24511097D01*
X14801140Y-24492000D01*
X17964860Y-24492000D01*
X18158752Y-24511097D01*
G37*
G36*
X25095468Y-27200565D02*
G01*
X25134138Y-27212296D01*
X25169777Y-27231346D01*
X25201017Y-27256983D01*
X25226654Y-27288223D01*
X25245704Y-27323862D01*
X25257435Y-27362532D01*
X25262000Y-27408888D01*
X25262000Y-28060112D01*
X25257435Y-28106468D01*
X25245704Y-28145138D01*
X25226654Y-28180777D01*
X25201017Y-28212017D01*
X25169777Y-28237654D01*
X25134138Y-28256704D01*
X25095468Y-28268435D01*
X25049112Y-28273000D01*
X23972888Y-28273000D01*
X23926532Y-28268435D01*
X23887862Y-28256704D01*
X23852223Y-28237654D01*
X23820983Y-28212017D01*
X23795346Y-28180777D01*
X23776296Y-28145138D01*
X23764565Y-28106468D01*
X23760000Y-28060112D01*
X23760000Y-27408888D01*
X23764565Y-27362532D01*
X23776296Y-27323862D01*
X23795346Y-27288223D01*
X23820983Y-27256983D01*
X23852223Y-27231346D01*
X23887862Y-27212296D01*
X23926532Y-27200565D01*
X23972888Y-27196000D01*
X25049112Y-27196000D01*
X25095468Y-27200565D01*
G37*
G36*
X53326512Y-24630927D02*
G01*
X53475812Y-24660624D01*
X53639784Y-24728544D01*
X53787354Y-24827147D01*
X53912853Y-24952646D01*
X54011456Y-25100216D01*
X54079376Y-25264188D01*
X54114000Y-25438259D01*
X54114000Y-25615741D01*
X54079376Y-25789812D01*
X54011456Y-25953784D01*
X53912853Y-26101354D01*
X53787354Y-26226853D01*
X53639784Y-26325456D01*
X53475812Y-26393376D01*
X53326512Y-26423073D01*
X53301742Y-26428000D01*
X53124258Y-26428000D01*
X53099488Y-26423073D01*
X52950188Y-26393376D01*
X52786216Y-26325456D01*
X52638646Y-26226853D01*
X52513147Y-26101354D01*
X52414544Y-25953784D01*
X52346624Y-25789812D01*
X52312000Y-25615741D01*
X52312000Y-25438259D01*
X52346624Y-25264188D01*
X52414544Y-25100216D01*
X52513147Y-24952646D01*
X52638646Y-24827147D01*
X52786216Y-24728544D01*
X52950188Y-24660624D01*
X53099488Y-24630927D01*
X53124258Y-24626000D01*
X53301742Y-24626000D01*
X53326512Y-24630927D01*
G37*
G36*
X25095468Y-25325565D02*
G01*
X25134138Y-25337296D01*
X25169777Y-25356346D01*
X25201017Y-25381983D01*
X25226654Y-25413223D01*
X25245704Y-25448862D01*
X25257435Y-25487532D01*
X25262000Y-25533888D01*
X25262000Y-26185112D01*
X25257435Y-26231468D01*
X25245704Y-26270138D01*
X25226654Y-26305777D01*
X25201017Y-26337017D01*
X25169777Y-26362654D01*
X25134138Y-26381704D01*
X25095468Y-26393435D01*
X25049112Y-26398000D01*
X23972888Y-26398000D01*
X23926532Y-26393435D01*
X23887862Y-26381704D01*
X23852223Y-26362654D01*
X23820983Y-26337017D01*
X23795346Y-26305777D01*
X23776296Y-26270138D01*
X23764565Y-26231468D01*
X23760000Y-26185112D01*
X23760000Y-25533888D01*
X23764565Y-25487532D01*
X23776296Y-25448862D01*
X23795346Y-25413223D01*
X23820983Y-25381983D01*
X23852223Y-25356346D01*
X23887862Y-25337296D01*
X23926532Y-25325565D01*
X23972888Y-25321000D01*
X25049112Y-25321000D01*
X25095468Y-25325565D01*
G37*
G36*
X25095468Y-23390565D02*
G01*
X25134138Y-23402296D01*
X25169777Y-23421346D01*
X25201017Y-23446983D01*
X25226654Y-23478223D01*
X25245704Y-23513862D01*
X25257435Y-23552532D01*
X25262000Y-23598888D01*
X25262000Y-24250112D01*
X25257435Y-24296468D01*
X25245704Y-24335138D01*
X25226654Y-24370777D01*
X25201017Y-24402017D01*
X25169777Y-24427654D01*
X25134138Y-24446704D01*
X25095468Y-24458435D01*
X25049112Y-24463000D01*
X23972888Y-24463000D01*
X23926532Y-24458435D01*
X23887862Y-24446704D01*
X23852223Y-24427654D01*
X23820983Y-24402017D01*
X23795346Y-24370777D01*
X23776296Y-24335138D01*
X23764565Y-24296468D01*
X23760000Y-24250112D01*
X23760000Y-23598888D01*
X23764565Y-23552532D01*
X23776296Y-23513862D01*
X23795346Y-23478223D01*
X23820983Y-23446983D01*
X23852223Y-23421346D01*
X23887862Y-23402296D01*
X23926532Y-23390565D01*
X23972888Y-23386000D01*
X25049112Y-23386000D01*
X25095468Y-23390565D01*
G37*
G36*
X54114000Y-23888000D02*
G01*
X52312000Y-23888000D01*
X52312000Y-22086000D01*
X54114000Y-22086000D01*
X54114000Y-23888000D01*
G37*
G36*
X39584000Y-23778000D02*
G01*
X37482000Y-23778000D01*
X37482000Y-22176000D01*
X39584000Y-22176000D01*
X39584000Y-23778000D01*
G37*
G36*
X30844000Y-23778000D02*
G01*
X28742000Y-23778000D01*
X28742000Y-22176000D01*
X30844000Y-22176000D01*
X30844000Y-23778000D01*
G37*
G36*
X25095468Y-21515565D02*
G01*
X25134138Y-21527296D01*
X25169777Y-21546346D01*
X25201017Y-21571983D01*
X25226654Y-21603223D01*
X25245704Y-21638862D01*
X25257435Y-21677532D01*
X25262000Y-21723888D01*
X25262000Y-22375112D01*
X25257435Y-22421468D01*
X25245704Y-22460138D01*
X25226654Y-22495777D01*
X25201017Y-22527017D01*
X25169777Y-22552654D01*
X25134138Y-22571704D01*
X25095468Y-22583435D01*
X25049112Y-22588000D01*
X23972888Y-22588000D01*
X23926532Y-22583435D01*
X23887862Y-22571704D01*
X23852223Y-22552654D01*
X23820983Y-22527017D01*
X23795346Y-22495777D01*
X23776296Y-22460138D01*
X23764565Y-22421468D01*
X23760000Y-22375112D01*
X23760000Y-21723888D01*
X23764565Y-21677532D01*
X23776296Y-21638862D01*
X23795346Y-21603223D01*
X23820983Y-21571983D01*
X23852223Y-21546346D01*
X23887862Y-21527296D01*
X23926532Y-21515565D01*
X23972888Y-21511000D01*
X25049112Y-21511000D01*
X25095468Y-21515565D01*
G37*
G36*
X18158752Y-17145097D02*
G01*
X18339295Y-17199864D01*
X18505677Y-17288797D01*
X18651516Y-17408484D01*
X18771203Y-17554323D01*
X18860136Y-17720705D01*
X18914903Y-17901248D01*
X18934000Y-18095140D01*
X18934000Y-20258860D01*
X18914903Y-20452752D01*
X18860136Y-20633295D01*
X18771203Y-20799677D01*
X18651516Y-20945516D01*
X18505677Y-21065203D01*
X18339295Y-21154136D01*
X18158752Y-21208903D01*
X17964860Y-21228000D01*
X14801140Y-21228000D01*
X14607248Y-21208903D01*
X14426705Y-21154136D01*
X14260323Y-21065203D01*
X14114484Y-20945516D01*
X13994797Y-20799677D01*
X13905864Y-20633295D01*
X13851097Y-20452752D01*
X13832000Y-20258860D01*
X13832000Y-18095140D01*
X13851097Y-17901248D01*
X13905864Y-17720705D01*
X13994797Y-17554323D01*
X14114484Y-17408484D01*
X14260323Y-17288797D01*
X14426705Y-17199864D01*
X14607248Y-17145097D01*
X14801140Y-17126000D01*
X17964860Y-17126000D01*
X18158752Y-17145097D01*
G37*
G36*
X54203000Y-20372000D02*
G01*
X52101000Y-20372000D01*
X52101000Y-18490000D01*
X54203000Y-18490000D01*
X54203000Y-20372000D01*
G37*
G36*
X44673000Y-20372000D02*
G01*
X42571000Y-20372000D01*
X42571000Y-18490000D01*
X44673000Y-18490000D01*
X44673000Y-20372000D01*
G37*
G36*
X34387549Y-17032116D02*
G01*
X34498734Y-17054232D01*
X34708203Y-17140997D01*
X34896720Y-17266960D01*
X35057040Y-17427280D01*
X35183003Y-17615797D01*
X35242344Y-17759058D01*
X35269768Y-17825267D01*
X35294865Y-17951435D01*
X35314000Y-18047636D01*
X35314000Y-18274364D01*
X35269768Y-18496734D01*
X35183003Y-18706203D01*
X35057040Y-18894720D01*
X34896720Y-19055040D01*
X34708203Y-19181003D01*
X34498734Y-19267768D01*
X34387549Y-19289884D01*
X34276365Y-19312000D01*
X34049635Y-19312000D01*
X33938451Y-19289884D01*
X33827266Y-19267768D01*
X33617797Y-19181003D01*
X33429280Y-19055040D01*
X33268960Y-18894720D01*
X33142997Y-18706203D01*
X33056232Y-18496734D01*
X33012000Y-18274364D01*
X33012000Y-18047636D01*
X33031136Y-17951435D01*
X33056232Y-17825267D01*
X33083657Y-17759058D01*
X33142997Y-17615797D01*
X33268960Y-17427280D01*
X33429280Y-17266960D01*
X33617797Y-17140997D01*
X33827266Y-17054232D01*
X33938451Y-17032116D01*
X34049635Y-17010000D01*
X34276365Y-17010000D01*
X34387549Y-17032116D01*
G37*
G36*
X54203000Y-17832000D02*
G01*
X52101000Y-17832000D01*
X52101000Y-15950000D01*
X54203000Y-15950000D01*
X54203000Y-17832000D01*
G37*
G36*
X44673000Y-17832000D02*
G01*
X42571000Y-17832000D01*
X42571000Y-15950000D01*
X44673000Y-15950000D01*
X44673000Y-17832000D01*
G37*
G36*
X25256532Y-12559065D02*
G01*
X25300079Y-12572276D01*
X25340219Y-12593730D01*
X25375399Y-12622601D01*
X25404270Y-12657781D01*
X25425724Y-12697921D01*
X25438935Y-12741468D01*
X25444000Y-12792900D01*
X25444000Y-16417100D01*
X25438935Y-16468532D01*
X25425724Y-16512079D01*
X25404270Y-16552219D01*
X25375399Y-16587399D01*
X25340219Y-16616270D01*
X25300079Y-16637724D01*
X25256532Y-16650935D01*
X25205100Y-16656000D01*
X23180900Y-16656000D01*
X23129468Y-16650935D01*
X23085921Y-16637724D01*
X23045781Y-16616270D01*
X23010601Y-16587399D01*
X22981730Y-16552219D01*
X22960276Y-16512079D01*
X22947065Y-16468532D01*
X22942000Y-16417100D01*
X22942000Y-12792900D01*
X22947065Y-12741468D01*
X22960276Y-12697921D01*
X22981730Y-12657781D01*
X23010601Y-12622601D01*
X23045781Y-12593730D01*
X23085921Y-12572276D01*
X23129468Y-12559065D01*
X23180900Y-12554000D01*
X25205100Y-12554000D01*
X25256532Y-12559065D01*
G37*
G36*
X17256532Y-12559065D02*
G01*
X17300079Y-12572276D01*
X17340219Y-12593730D01*
X17375399Y-12622601D01*
X17404270Y-12657781D01*
X17425724Y-12697921D01*
X17438935Y-12741468D01*
X17444000Y-12792900D01*
X17444000Y-16417100D01*
X17438935Y-16468532D01*
X17425724Y-16512079D01*
X17404270Y-16552219D01*
X17375399Y-16587399D01*
X17340219Y-16616270D01*
X17300079Y-16637724D01*
X17256532Y-16650935D01*
X17205100Y-16656000D01*
X15180900Y-16656000D01*
X15129468Y-16650935D01*
X15085921Y-16637724D01*
X15045781Y-16616270D01*
X15010601Y-16587399D01*
X14981730Y-16552219D01*
X14960276Y-16512079D01*
X14947065Y-16468532D01*
X14942000Y-16417100D01*
X14942000Y-12792900D01*
X14947065Y-12741468D01*
X14960276Y-12697921D01*
X14981730Y-12657781D01*
X15010601Y-12622601D01*
X15045781Y-12593730D01*
X15085921Y-12572276D01*
X15129468Y-12559065D01*
X15180900Y-12554000D01*
X17205100Y-12554000D01*
X17256532Y-12559065D01*
G37*
G36*
X33440468Y-12588565D02*
G01*
X33479138Y-12600296D01*
X33514777Y-12619346D01*
X33546017Y-12644983D01*
X33571654Y-12676223D01*
X33590704Y-12711862D01*
X33602435Y-12750532D01*
X33607000Y-12796888D01*
X33607000Y-13873112D01*
X33602435Y-13919468D01*
X33590704Y-13958138D01*
X33571654Y-13993777D01*
X33546017Y-14025017D01*
X33514777Y-14050654D01*
X33479138Y-14069704D01*
X33440468Y-14081435D01*
X33394112Y-14086000D01*
X32742888Y-14086000D01*
X32696532Y-14081435D01*
X32657862Y-14069704D01*
X32622223Y-14050654D01*
X32590983Y-14025017D01*
X32565346Y-13993777D01*
X32546296Y-13958138D01*
X32534565Y-13919468D01*
X32530000Y-13873112D01*
X32530000Y-12796888D01*
X32534565Y-12750532D01*
X32546296Y-12711862D01*
X32565346Y-12676223D01*
X32590983Y-12644983D01*
X32622223Y-12619346D01*
X32657862Y-12600296D01*
X32696532Y-12588565D01*
X32742888Y-12584000D01*
X33394112Y-12584000D01*
X33440468Y-12588565D01*
G37*
G36*
X27501468Y-12588565D02*
G01*
X27540138Y-12600296D01*
X27575777Y-12619346D01*
X27607017Y-12644983D01*
X27632654Y-12676223D01*
X27651704Y-12711862D01*
X27663435Y-12750532D01*
X27668000Y-12796888D01*
X27668000Y-13873112D01*
X27663435Y-13919468D01*
X27651704Y-13958138D01*
X27632654Y-13993777D01*
X27607017Y-14025017D01*
X27575777Y-14050654D01*
X27540138Y-14069704D01*
X27501468Y-14081435D01*
X27455112Y-14086000D01*
X26803888Y-14086000D01*
X26757532Y-14081435D01*
X26718862Y-14069704D01*
X26683223Y-14050654D01*
X26651983Y-14025017D01*
X26626346Y-13993777D01*
X26607296Y-13958138D01*
X26595565Y-13919468D01*
X26591000Y-13873112D01*
X26591000Y-12796888D01*
X26595565Y-12750532D01*
X26607296Y-12711862D01*
X26626346Y-12676223D01*
X26651983Y-12644983D01*
X26683223Y-12619346D01*
X26718862Y-12600296D01*
X26757532Y-12588565D01*
X26803888Y-12584000D01*
X27455112Y-12584000D01*
X27501468Y-12588565D01*
G37*
G36*
X31565468Y-12588565D02*
G01*
X31604138Y-12600296D01*
X31639777Y-12619346D01*
X31671017Y-12644983D01*
X31696654Y-12676223D01*
X31715704Y-12711862D01*
X31727435Y-12750532D01*
X31732000Y-12796888D01*
X31732000Y-13873112D01*
X31727435Y-13919468D01*
X31715704Y-13958138D01*
X31696654Y-13993777D01*
X31671017Y-14025017D01*
X31639777Y-14050654D01*
X31604138Y-14069704D01*
X31565468Y-14081435D01*
X31519112Y-14086000D01*
X30867888Y-14086000D01*
X30821532Y-14081435D01*
X30782862Y-14069704D01*
X30747223Y-14050654D01*
X30715983Y-14025017D01*
X30690346Y-13993777D01*
X30671296Y-13958138D01*
X30659565Y-13919468D01*
X30655000Y-13873112D01*
X30655000Y-12796888D01*
X30659565Y-12750532D01*
X30671296Y-12711862D01*
X30690346Y-12676223D01*
X30715983Y-12644983D01*
X30747223Y-12619346D01*
X30782862Y-12600296D01*
X30821532Y-12588565D01*
X30867888Y-12584000D01*
X31519112Y-12584000D01*
X31565468Y-12588565D01*
G37*
G36*
X29376468Y-12588565D02*
G01*
X29415138Y-12600296D01*
X29450777Y-12619346D01*
X29482017Y-12644983D01*
X29507654Y-12676223D01*
X29526704Y-12711862D01*
X29538435Y-12750532D01*
X29543000Y-12796888D01*
X29543000Y-13873112D01*
X29538435Y-13919468D01*
X29526704Y-13958138D01*
X29507654Y-13993777D01*
X29482017Y-14025017D01*
X29450777Y-14050654D01*
X29415138Y-14069704D01*
X29376468Y-14081435D01*
X29330112Y-14086000D01*
X28678888Y-14086000D01*
X28632532Y-14081435D01*
X28593862Y-14069704D01*
X28558223Y-14050654D01*
X28526983Y-14025017D01*
X28501346Y-13993777D01*
X28482296Y-13958138D01*
X28470565Y-13919468D01*
X28466000Y-13873112D01*
X28466000Y-12796888D01*
X28470565Y-12750532D01*
X28482296Y-12711862D01*
X28501346Y-12676223D01*
X28526983Y-12644983D01*
X28558223Y-12619346D01*
X28593862Y-12600296D01*
X28632532Y-12588565D01*
X28678888Y-12584000D01*
X29330112Y-12584000D01*
X29376468Y-12588565D01*
G37*
M02*
